# xmcd
#
# Track frame offsets:
#	183
#	19518
#	36553
#	52343
#	76435
#	91663
#	105620
#	128958
#	144228
#	166570
#	185715
#	199688
#	223388
#	243168
#
# Disc length: 3436
#
# Revision: 4
# Processed by: cddbd v1.5.1PL0 Copyright (c) Steve Scherf et al.
# Submitted via: OrangeCD 5.2
# Normalized: r3:DSETVAR1
#
DISCID=c10d6a0e
DTITLE=Various Artist - Born With The Blues - Vol. 2
DYEAR=1997
DGENRE=Blues
TTITLE0=Muddy Waters - Rollin and Tumblin (live)
TTITLE1=John Lee Hooker - Goin Mad Blues
TTITLE2=Clarence Edwards - Rocky Mountains
TTITLE3=Muddy Waters - Dust My Broom (live)
TTITLE4=Jimmy Reed - Down At The Corner Grocery Store
TTITLE5=King Biscuit Boy with The Ronnie Hawkins Band - Neighbour Neighbour
TTITLE6=Bo Diddley - Mona (live)
TTITLE7=Buddy Guy and Junior Wells - Hoodoo Man
TTITLE8=Magic Slim - Ship Made Of Paper
TTITLE9=Sunnyland Slim - Soft and Mellow Stella
TTITLE10=Lightnin' Hopkins - War Is Starting Again
TTITLE11=Buddy Guy and Junior Wells - In My Younger Days (live)
TTITLE12=Fenton Robinson - Somebody Loan Me A Dime
TTITLE13=King Biscuit Boy with The Ronnie Hawkins Band - Done Everything I Can
EXTD=
EXTT0=
EXTT1=
EXTT2=
EXTT3=
EXTT4=
EXTT5=
EXTT6=
EXTT7=
EXTT8=
EXTT9=
EXTT10=
EXTT11=
EXTT12=
EXTT13=
PLAYORDER=
